{
	"patcher" : 	{
		"fileversion" : 1,
		"appversion" : 		{
			"major" : 9,
			"minor" : 0,
			"revision" : 3,
			"architecture" : "x64",
			"modernui" : 1
		}
,
		"classnamespace" : "box",
		"rect" : [ 177.0, 197.0, 899.0, 601.0 ],
		"gridsize" : [ 15.0, 15.0 ],
		"boxes" : [ 			{
				"box" : 				{
					"id" : "obj-33",
					"maxclass" : "comment",
					"numinlets" : 1,
					"numoutlets" : 0,
					"patching_rect" : [ 368.0, 23.30078125, 150.0, 20.0 ],
					"text" : "Set cycle length"
				}

			}
, 			{
				"box" : 				{
					"id" : "obj-32",
					"maxclass" : "comment",
					"numinlets" : 1,
					"numoutlets" : 0,
					"patching_rect" : [ 513.0, 182.0, 150.0, 20.0 ],
					"text" : "Visualize the sequence"
				}

			}
, 			{
				"box" : 				{
					"id" : "obj-31",
					"maxclass" : "newobj",
					"numinlets" : 2,
					"numoutlets" : 2,
					"outlettype" : [ "", "" ],
					"patching_rect" : [ 33.80859375, 142.30078125, 59.0, 22.0 ],
					"text" : "route text"
				}

			}
, 			{
				"box" : 				{
					"id" : "obj-28",
					"maxclass" : "newobj",
					"numinlets" : 1,
					"numoutlets" : 0,
					"patching_rect" : [ 231.0, 174.30078125, 58.0, 22.0 ],
					"text" : "print time"
				}

			}
, 			{
				"box" : 				{
					"id" : "obj-26",
					"maxclass" : "textedit",
					"numinlets" : 1,
					"numoutlets" : 4,
					"outlettype" : [ "", "int", "", "" ],
					"parameter_enable" : 0,
					"patching_rect" : [ 241.0, 23.80078125, 112.0, 19.0 ],
					"text" : "1.0.0"
				}

			}
, 			{
				"box" : 				{
					"fontface" : 0,
					"fontname" : "Arial",
					"fontsize" : 12.0,
					"id" : "obj-24",
					"maxclass" : "number~",
					"mode" : 2,
					"numinlets" : 2,
					"numoutlets" : 2,
					"outlettype" : [ "signal", "float" ],
					"patching_rect" : [ 161.859375, 354.0, 56.0, 22.0 ],
					"sig" : 0.0
				}

			}
, 			{
				"box" : 				{
					"id" : "obj-23",
					"maxclass" : "comment",
					"numinlets" : 1,
					"numoutlets" : 0,
					"patching_rect" : [ 59.30859375, 23.30078125, 150.0, 20.0 ],
					"text" : "Generate sequence"
				}

			}
, 			{
				"box" : 				{
					"filename" : "none",
					"id" : "obj-4",
					"maxclass" : "newobj",
					"numinlets" : 1,
					"numoutlets" : 3,
					"outlettype" : [ "", "", "" ],
					"patching_rect" : [ 59.30859375, 72.0, 30.0, 22.0 ],
					"saved_object_attributes" : 					{
						"parameter_enable" : 0
					}
,
					"text" : "v8",
					"textfile" : 					{
						"text" : "\n// Sequence logic. Expands the step sequence, pokes SEMITONE offsets (natural\n// minor) into buffer~ steps and note/rest flags into buffer~ gates.\n//\n// tokens: integers = scale degrees, \"~\" = rest\n// steps[i] = minorSemis(seq[i % seqLen] + mods[i % modLen]), length = lcm(seqLen, modLen)\n// a \"~\" in seq OR mods makes that expanded step a rest (gate flag 0)\n//\n// messages:\n//   seq 0 2 5 4     -> base degree sequence (textedit via prepend seq)\n//   mods 0 0 1      -> cyclic degree modifiers (textedit via prepend mods)\n//\n// outlets:\n//   0: expanded list with rests shown as ~ (for print/inspection)\n//   1: step count N (drives *~ on the phasor)\n//   2: numeric viz list, rests as -15 (feeds the read-only multislider)\n\ninlets = 1;\noutlets = 3;\n\nconst OCT_DOWN = 2;\nconst OCT_UP = 3;\nconst MIN_DEG = -OCT_DOWN * 7;   // -14\nconst MAX_DEG = OCT_UP * 7;      //  21\nconst REST = \"~\";\nconst VIZ_REST = MIN_DEG - 1;    // -15, pins rests to the bottom of the viz\n\nconst MINOR = [0, 2, 3, 5, 7, 8, 10]; // natural minor semitone offsets\n\nlet seqArr = [0, 2, 5, 4];       // numbers, or null for rests\nlet modArr = [0];\nlet lastLen = 0;\n\nfunction gcd(a, b) { return b ? gcd(b, a % b) : a; }\nfunction lcm(a, b) { return (a * b) / gcd(a, b); }\nconst clampDeg = (d) => Math.max(MIN_DEG, Math.min(MAX_DEG, d));\n\n// textedit hands us symbols; message boxes hand us numbers — accept both\nfunction parseTokens(vals) {\n    if (vals[0] === \"text\") vals = vals.slice(1); // textedit prefixes output with \"text\"\n    return vals.map((v) => {\n        if (typeof v === \"number\") return Math.round(v);\n        const s = String(v);\n        if (s === REST) return null;\n        const n = Number(s);\n        return Number.isFinite(n) ? Math.round(n) : null;\n    });\n}\n\nfunction degToSemi(d) {\n    const oct = Math.floor(d / 7);\n    const step = ((d % 7) + 7) % 7;\n    return oct * 12 + MINOR[step];\n}\n\nfunction rebuild() {\n    const n = lcm(seqArr.length, modArr.length);\n    const degs = []; // number | null\n    for (let i = 0; i < n; i++) {\n        const s = seqArr[i % seqArr.length];\n        const m = modArr[i % modArr.length];\n        degs.push(s === null || m === null ? null : clampDeg(s + m));\n    }\n    const steps = new Buffer(\"steps\");\n    const gates = new Buffer(\"gates\");\n    // only resize when the expanded length actually changes\n    if (n !== lastLen) {\n        steps.send(\"sizeinsamps\", n);\n        gates.send(\"sizeinsamps\", n);\n        lastLen = n;\n    }\n    let lastSemi = 0; // rests hold the previous pitch; gate flag mutes them anyway\n    for (let i = 0; i < n; i++) {\n        const d = degs[i];\n        if (d === null) {\n            steps.poke(1, i, lastSemi);\n            gates.poke(1, i, 0);\n        } else {\n            lastSemi = degToSemi(d);\n            steps.poke(1, i, lastSemi);\n            gates.poke(1, i, 1);\n        }\n    }\n    outlet(2, degs.map((d) => (d === null ? VIZ_REST : d)));\n    outlet(1, n);\n    outlet(0, degs.map((d) => (d === null ? REST : d)));\n}\n\nfunction seq(...vals) {\n    if (vals.length) { seqArr = parseTokens(vals); rebuild(); }\n}\n\nfunction mods(...vals) {\n    if (vals.length) { modArr = parseTokens(vals); rebuild(); }\n}\n\nfunction loadbang() {\n    rebuild();\n}\n",
						"filename" : "none",
						"flags" : 0,
						"embed" : 1,
						"autowatch" : 1
					}

				}

			}
, 			{
				"box" : 				{
					"id" : "obj-5",
					"maxclass" : "newobj",
					"numinlets" : 1,
					"numoutlets" : 0,
					"patching_rect" : [ 231.0, 136.0, 70.0, 22.0 ],
					"text" : "print steps"
				}

			}
, 			{
				"box" : 				{
					"id" : "obj-9",
					"maxclass" : "newobj",
					"numinlets" : 2,
					"numoutlets" : 1,
					"outlettype" : [ "signal" ],
					"patching_rect" : [ 33.80859375, 192.0, 129.0, 22.0 ],
					"text" : "phasor~ 1.0.0 @lock 1"
				}

			}
, 			{
				"box" : 				{
					"id" : "obj-10",
					"maxclass" : "newobj",
					"numinlets" : 2,
					"numoutlets" : 1,
					"outlettype" : [ "signal" ],
					"patching_rect" : [ 33.80859375, 234.0, 50.0, 22.0 ],
					"text" : "*~ 12"
				}

			}
, 			{
				"box" : 				{
					"id" : "obj-11",
					"maxclass" : "newobj",
					"numinlets" : 2,
					"numoutlets" : 1,
					"outlettype" : [ "signal" ],
					"patching_rect" : [ 33.80859375, 274.0, 122.0, 22.0 ],
					"text" : "round~ 1 @nearest 0"
				}

			}
, 			{
				"box" : 				{
					"id" : "obj-12",
					"maxclass" : "newobj",
					"numinlets" : 2,
					"numoutlets" : 2,
					"outlettype" : [ "signal", "signal" ],
					"patching_rect" : [ 33.80859375, 314.0, 80.0, 22.0 ],
					"text" : "index~ steps"
				}

			}
, 			{
				"box" : 				{
					"id" : "obj-13",
					"maxclass" : "newobj",
					"numinlets" : 2,
					"numoutlets" : 1,
					"outlettype" : [ "signal" ],
					"patching_rect" : [ 33.80859375, 354.0, 50.0, 22.0 ],
					"text" : "+~ 57"
				}

			}
, 			{
				"box" : 				{
					"id" : "obj-56",
					"maxclass" : "number",
					"maximum" : 96,
					"minimum" : 24,
					"numinlets" : 1,
					"numoutlets" : 2,
					"outlettype" : [ "", "bang" ],
					"parameter_enable" : 0,
					"patching_rect" : [ 227.0, 238.0, 50.0, 22.0 ]
				}

			}
, 			{
				"box" : 				{
					"id" : "obj-57",
					"maxclass" : "comment",
					"numinlets" : 1,
					"numoutlets" : 0,
					"patching_rect" : [ 223.09765625, 210.0, 200.0, 20.0 ],
					"text" : "root (MIDI note, default 57 = A3)"
				}

			}
, 			{
				"box" : 				{
					"id" : "obj-14",
					"maxclass" : "newobj",
					"numinlets" : 1,
					"numoutlets" : 1,
					"outlettype" : [ "signal" ],
					"patching_rect" : [ 33.80859375, 394.0, 50.0, 22.0 ],
					"text" : "mtof~"
				}

			}
, 			{
				"box" : 				{
					"fontface" : 0,
					"fontname" : "Arial",
					"fontsize" : 12.0,
					"id" : "obj-15",
					"maxclass" : "number~",
					"mode" : 2,
					"numinlets" : 2,
					"numoutlets" : 2,
					"outlettype" : [ "signal", "float" ],
					"patching_rect" : [ 161.859375, 394.0, 100.0, 22.0 ],
					"sig" : 0.0
				}

			}
, 			{
				"box" : 				{
					"id" : "obj-19",
					"maxclass" : "newobj",
					"numinlets" : 3,
					"numoutlets" : 1,
					"outlettype" : [ "signal" ],
					"patching_rect" : [ 33.80859375, 474.0, 50.0, 22.0 ],
					"text" : "rect~"
				}

			}
, 			{
				"box" : 				{
					"floatoutput" : 1,
					"id" : "obj-80",
					"maxclass" : "dial",
					"min" : 0.05,
					"numinlets" : 1,
					"numoutlets" : 1,
					"outlettype" : [ "float" ],
					"parameter_enable" : 0,
					"patching_rect" : [ 105.859375, 436.0, 40.0, 40.0 ],
					"size" : 1.0
				}

			}
, 			{
				"box" : 				{
					"id" : "obj-85",
					"maxclass" : "comment",
					"numinlets" : 1,
					"numoutlets" : 0,
					"patching_rect" : [ 162.859375, 439.30078125, 150.0, 20.0 ],
					"text" : "pulse width (0.05–0.95)"
				}

			}
, 			{
				"box" : 				{
					"id" : "obj-16",
					"maxclass" : "toggle",
					"numinlets" : 1,
					"numoutlets" : 1,
					"outlettype" : [ "int" ],
					"parameter_enable" : 0,
					"patching_rect" : [ 103.80859375, 514.0, 24.0, 24.0 ],
					"svg" : ""
				}

			}
, 			{
				"box" : 				{
					"id" : "obj-17",
					"maxclass" : "newobj",
					"numinlets" : 2,
					"numoutlets" : 0,
					"patching_rect" : [ 33.80859375, 554.0, 68.0, 22.0 ],
					"text" : "dac~ 15 16"
				}

			}
, 			{
				"box" : 				{
					"id" : "obj-18",
					"maxclass" : "comment",
					"numinlets" : 1,
					"numoutlets" : 0,
					"patching_rect" : [ 113.80859375, 555.0, 560.0, 20.0 ],
					"text" : "<- osc on ch 1, gate on ch 2 (amp env happens in the rack); change to dac~ 15 16 to feed the ES-10"
				}

			}
, 			{
				"box" : 				{
					"id" : "obj-30",
					"maxclass" : "comment",
					"numinlets" : 1,
					"numoutlets" : 0,
					"patching_rect" : [ 786.859375, 23.30078125, 240.0, 20.0 ],
					"text" : "seq — type degrees, ~ = rest"
				}

			}
, 			{
				"box" : 				{
					"id" : "obj-60",
					"maxclass" : "textedit",
					"numinlets" : 1,
					"numoutlets" : 4,
					"outlettype" : [ "", "int", "", "" ],
					"parameter_enable" : 0,
					"patching_rect" : [ 786.859375, 47.30078125, 240.0, 24.0 ],
					"text" : "0 5 1 3 4 7"
				}

			}
, 			{
				"box" : 				{
					"id" : "obj-35",
					"maxclass" : "newobj",
					"numinlets" : 1,
					"numoutlets" : 1,
					"outlettype" : [ "" ],
					"patching_rect" : [ 786.859375, 81.30078125, 80.0, 22.0 ],
					"text" : "prepend seq"
				}

			}
, 			{
				"box" : 				{
					"id" : "obj-36",
					"maxclass" : "comment",
					"numinlets" : 1,
					"numoutlets" : 0,
					"patching_rect" : [ 786.859375, 143.30078125, 380.0, 20.0 ],
					"text" : "mods — cyclic modifiers, ~ forces a rest at that cycle position"
				}

			}
, 			{
				"box" : 				{
					"id" : "obj-62",
					"maxclass" : "textedit",
					"numinlets" : 1,
					"numoutlets" : 4,
					"outlettype" : [ "", "int", "", "" ],
					"parameter_enable" : 0,
					"patching_rect" : [ 786.859375, 167.30078125, 240.0, 24.0 ],
					"text" : "0 0 1 3"
				}

			}
, 			{
				"box" : 				{
					"id" : "obj-41",
					"maxclass" : "newobj",
					"numinlets" : 1,
					"numoutlets" : 1,
					"outlettype" : [ "" ],
					"patching_rect" : [ 786.859375, 201.30078125, 90.0, 22.0 ],
					"text" : "prepend mods"
				}

			}
, 			{
				"box" : 				{
					"id" : "obj-81",
					"maxclass" : "newobj",
					"numinlets" : 1,
					"numoutlets" : 1,
					"outlettype" : [ "bang" ],
					"patching_rect" : [ 786.859375, 259.30078125, 60.0, 22.0 ],
					"text" : "loadbang"
				}

			}
, 			{
				"box" : 				{
					"id" : "obj-82",
					"maxclass" : "newobj",
					"numinlets" : 1,
					"numoutlets" : 1,
					"outlettype" : [ "" ],
					"patching_rect" : [ 786.859375, 289.30078125, 58.0, 22.0 ],
					"text" : "deferlow"
				}

			}
, 			{
				"box" : 				{
					"id" : "obj-83",
					"maxclass" : "newobj",
					"numinlets" : 1,
					"numoutlets" : 3,
					"outlettype" : [ "bang", "bang", "bang" ],
					"patching_rect" : [ 786.859375, 319.30078125, 60.0, 22.0 ],
					"text" : "t b b b"
				}

			}
, 			{
				"box" : 				{
					"id" : "obj-84",
					"maxclass" : "message",
					"numinlets" : 2,
					"numoutlets" : 1,
					"outlettype" : [ "" ],
					"patching_rect" : [ 877.859375, 354.30078125, 35.0, 22.0 ],
					"text" : "0.5"
				}

			}
, 			{
				"box" : 				{
					"id" : "obj-86",
					"maxclass" : "comment",
					"numinlets" : 1,
					"numoutlets" : 0,
					"patching_rect" : [ 857.859375, 259.30078125, 330.0, 20.0 ],
					"text" : "on load: push both texteedits into v8 + init pulse width"
				}

			}
, 			{
				"box" : 				{
					"id" : "obj-64",
					"maxclass" : "newobj",
					"numinlets" : 1,
					"numoutlets" : 2,
					"outlettype" : [ "", "" ],
					"patching_rect" : [ 364.859375, 97.30078125, 40.0, 22.0 ],
					"text" : "t l l"
				}

			}
, 			{
				"box" : 				{
					"id" : "obj-65",
					"maxclass" : "newobj",
					"numinlets" : 2,
					"numoutlets" : 2,
					"outlettype" : [ "", "" ],
					"patching_rect" : [ 414.859375, 129.30078125, 50.0, 22.0 ],
					"text" : "zl len"
				}

			}
, 			{
				"box" : 				{
					"id" : "obj-66",
					"maxclass" : "newobj",
					"numinlets" : 1,
					"numoutlets" : 1,
					"outlettype" : [ "" ],
					"patching_rect" : [ 414.859375, 161.30078125, 80.0, 22.0 ],
					"text" : "prepend size"
				}

			}
, 			{
				"box" : 				{
					"id" : "obj-67",
					"ignoreclick" : 1,
					"maxclass" : "multislider",
					"numinlets" : 1,
					"numoutlets" : 2,
					"outlettype" : [ "", "" ],
					"parameter_enable" : 0,
					"patching_rect" : [ 415.09765625, 214.30078125, 240.0, 80.0 ],
					"setminmax" : [ -15.0, 21.0 ],
					"size" : 12
				}

			}
, 			{
				"box" : 				{
					"id" : "obj-68",
					"maxclass" : "newobj",
					"numinlets" : 1,
					"numoutlets" : 2,
					"outlettype" : [ "float", "bang" ],
					"patching_rect" : [ 662.0, 465.0, 95.0, 22.0 ],
					"text" : "buffer~ steps 10"
				}

			}
, 			{
				"box" : 				{
					"id" : "obj-69",
					"maxclass" : "newobj",
					"numinlets" : 1,
					"numoutlets" : 2,
					"outlettype" : [ "float", "bang" ],
					"patching_rect" : [ 662.0, 495.0, 95.0, 22.0 ],
					"text" : "buffer~ gates 10"
				}

			}
, 			{
				"box" : 				{
					"id" : "obj-71",
					"maxclass" : "newobj",
					"numinlets" : 2,
					"numoutlets" : 2,
					"outlettype" : [ "signal", "signal" ],
					"patching_rect" : [ 357.09765625, 369.0, 82.0, 22.0 ],
					"text" : "index~ gates"
				}

			}
, 			{
				"box" : 				{
					"id" : "obj-72",
					"maxclass" : "newobj",
					"numinlets" : 2,
					"numoutlets" : 1,
					"outlettype" : [ "signal" ],
					"patching_rect" : [ 287.859375, 388.30078125, 33.0, 22.0 ],
					"text" : "*~"
				}

			}
, 			{
				"box" : 				{
					"id" : "obj-50",
					"maxclass" : "newobj",
					"numinlets" : 2,
					"numoutlets" : 1,
					"outlettype" : [ "signal" ],
					"patching_rect" : [ 287.859375, 287.30078125, 33.0, 22.0 ],
					"text" : "-~"
				}

			}
, 			{
				"box" : 				{
					"id" : "obj-51",
					"maxclass" : "newobj",
					"numinlets" : 2,
					"numoutlets" : 1,
					"outlettype" : [ "signal" ],
					"patching_rect" : [ 287.859375, 321.30078125, 50.0, 22.0 ],
					"text" : "<~ 0.5"
				}

			}
, 			{
				"box" : 				{
					"format" : 6,
					"id" : "obj-53",
					"maxclass" : "flonum",
					"maximum" : 0.95,
					"minimum" : 0.05,
					"numinlets" : 1,
					"numoutlets" : 2,
					"outlettype" : [ "", "bang" ],
					"parameter_enable" : 0,
					"patching_rect" : [ 373.09765625, 304.23828125, 50.0, 22.0 ]
				}

			}
, 			{
				"box" : 				{
					"id" : "obj-54",
					"maxclass" : "comment",
					"numinlets" : 1,
					"numoutlets" : 0,
					"patching_rect" : [ 425.09765625, 305.23828125, 150.0, 20.0 ],
					"text" : "gate width (0-1 of step)"
				}

			}
, 			{
				"box" : 				{
					"id" : "obj-55",
					"linecount" : 3,
					"maxclass" : "comment",
					"numinlets" : 1,
					"numoutlets" : 0,
					"patching_rect" : [ 314.859375, 465.0, 280.0, 47.0 ],
					"presentation_linecount" : 3,
					"text" : "per-step gate (sub-ramp < width) multiplied by the note/rest flag from buffer~ gates — sent straight to ch 2 for the ES-10 / rack envelope"
				}

			}
 ],
		"lines" : [ 			{
				"patchline" : 				{
					"destination" : [ "obj-11", 0 ],
					"order" : 1,
					"source" : [ "obj-10", 0 ]
				}

			}
, 			{
				"patchline" : 				{
					"destination" : [ "obj-50", 0 ],
					"order" : 0,
					"source" : [ "obj-10", 0 ]
				}

			}
, 			{
				"patchline" : 				{
					"destination" : [ "obj-12", 0 ],
					"order" : 2,
					"source" : [ "obj-11", 0 ]
				}

			}
, 			{
				"patchline" : 				{
					"destination" : [ "obj-50", 1 ],
					"order" : 1,
					"source" : [ "obj-11", 0 ]
				}

			}
, 			{
				"patchline" : 				{
					"destination" : [ "obj-71", 0 ],
					"order" : 0,
					"source" : [ "obj-11", 0 ]
				}

			}
, 			{
				"patchline" : 				{
					"destination" : [ "obj-13", 0 ],
					"order" : 1,
					"source" : [ "obj-12", 0 ]
				}

			}
, 			{
				"patchline" : 				{
					"destination" : [ "obj-24", 0 ],
					"order" : 0,
					"source" : [ "obj-12", 0 ]
				}

			}
, 			{
				"patchline" : 				{
					"destination" : [ "obj-14", 0 ],
					"source" : [ "obj-13", 0 ]
				}

			}
, 			{
				"patchline" : 				{
					"destination" : [ "obj-15", 0 ],
					"order" : 0,
					"source" : [ "obj-14", 0 ]
				}

			}
, 			{
				"patchline" : 				{
					"destination" : [ "obj-19", 0 ],
					"order" : 1,
					"source" : [ "obj-14", 0 ]
				}

			}
, 			{
				"patchline" : 				{
					"destination" : [ "obj-17", 0 ],
					"source" : [ "obj-16", 0 ]
				}

			}
, 			{
				"patchline" : 				{
					"destination" : [ "obj-17", 0 ],
					"source" : [ "obj-19", 0 ]
				}

			}
, 			{
				"patchline" : 				{
					"destination" : [ "obj-31", 0 ],
					"order" : 1,
					"source" : [ "obj-26", 0 ]
				}

			}
, 			{
				"patchline" : 				{
					"destination" : [ "obj-9", 0 ],
					"order" : 0,
					"source" : [ "obj-26", 0 ]
				}

			}
, 			{
				"patchline" : 				{
					"destination" : [ "obj-28", 0 ],
					"order" : 0,
					"source" : [ "obj-31", 0 ]
				}

			}
, 			{
				"patchline" : 				{
					"destination" : [ "obj-9", 0 ],
					"order" : 1,
					"source" : [ "obj-31", 0 ]
				}

			}
, 			{
				"patchline" : 				{
					"destination" : [ "obj-4", 0 ],
					"source" : [ "obj-35", 0 ]
				}

			}
, 			{
				"patchline" : 				{
					"destination" : [ "obj-10", 1 ],
					"source" : [ "obj-4", 1 ]
				}

			}
, 			{
				"patchline" : 				{
					"destination" : [ "obj-5", 0 ],
					"source" : [ "obj-4", 0 ]
				}

			}
, 			{
				"patchline" : 				{
					"destination" : [ "obj-64", 0 ],
					"source" : [ "obj-4", 2 ]
				}

			}
, 			{
				"patchline" : 				{
					"destination" : [ "obj-4", 0 ],
					"source" : [ "obj-41", 0 ]
				}

			}
, 			{
				"patchline" : 				{
					"destination" : [ "obj-51", 0 ],
					"source" : [ "obj-50", 0 ]
				}

			}
, 			{
				"patchline" : 				{
					"destination" : [ "obj-72", 0 ],
					"source" : [ "obj-51", 0 ]
				}

			}
, 			{
				"patchline" : 				{
					"destination" : [ "obj-51", 1 ],
					"source" : [ "obj-53", 0 ]
				}

			}
, 			{
				"patchline" : 				{
					"destination" : [ "obj-13", 1 ],
					"source" : [ "obj-56", 0 ]
				}

			}
, 			{
				"patchline" : 				{
					"destination" : [ "obj-35", 0 ],
					"source" : [ "obj-60", 0 ]
				}

			}
, 			{
				"patchline" : 				{
					"destination" : [ "obj-41", 0 ],
					"source" : [ "obj-62", 0 ]
				}

			}
, 			{
				"patchline" : 				{
					"destination" : [ "obj-65", 0 ],
					"source" : [ "obj-64", 1 ]
				}

			}
, 			{
				"patchline" : 				{
					"destination" : [ "obj-67", 0 ],
					"source" : [ "obj-64", 0 ]
				}

			}
, 			{
				"patchline" : 				{
					"destination" : [ "obj-66", 0 ],
					"source" : [ "obj-65", 0 ]
				}

			}
, 			{
				"patchline" : 				{
					"destination" : [ "obj-67", 0 ],
					"source" : [ "obj-66", 0 ]
				}

			}
, 			{
				"patchline" : 				{
					"destination" : [ "obj-72", 1 ],
					"source" : [ "obj-71", 0 ]
				}

			}
, 			{
				"patchline" : 				{
					"destination" : [ "obj-17", 1 ],
					"source" : [ "obj-72", 0 ]
				}

			}
, 			{
				"patchline" : 				{
					"destination" : [ "obj-19", 1 ],
					"source" : [ "obj-80", 0 ]
				}

			}
, 			{
				"patchline" : 				{
					"destination" : [ "obj-82", 0 ],
					"source" : [ "obj-81", 0 ]
				}

			}
, 			{
				"patchline" : 				{
					"destination" : [ "obj-83", 0 ],
					"source" : [ "obj-82", 0 ]
				}

			}
, 			{
				"patchline" : 				{
					"destination" : [ "obj-60", 0 ],
					"source" : [ "obj-83", 0 ]
				}

			}
, 			{
				"patchline" : 				{
					"destination" : [ "obj-62", 0 ],
					"source" : [ "obj-83", 1 ]
				}

			}
, 			{
				"patchline" : 				{
					"destination" : [ "obj-84", 0 ],
					"source" : [ "obj-83", 2 ]
				}

			}
, 			{
				"patchline" : 				{
					"destination" : [ "obj-80", 0 ],
					"source" : [ "obj-84", 0 ]
				}

			}
, 			{
				"patchline" : 				{
					"destination" : [ "obj-10", 0 ],
					"source" : [ "obj-9", 0 ]
				}

			}
 ],
		"originid" : "pat-76",
		"dependency_cache" : [  ],
		"autosave" : 0
	}

}
